<mxfile host="Electron" modified="2024-06-06T15:47:10.347Z" agent="Mozilla/5.0 (Windows NT 10.0; Win64; x64) AppleWebKit/537.36 (KHTML, like Gecko) draw.io/24.4.8 Chrome/124.0.6367.207 Electron/30.0.6 Safari/537.36" etag="OzKJSLluCQeGBAnwbsdV" version="24.4.8" type="device">
  <diagram name="Page-1" id="jdimXCGrJPXZahSR8788">
    <mxGraphModel dx="1036" dy="606" grid="1" gridSize="10" guides="1" tooltips="1" connect="1" arrows="1" fold="1" page="1" pageScale="1" pageWidth="850" pageHeight="1100" math="0" shadow="0">
      <root>
        <mxCell id="0" />
        <mxCell id="1" parent="0" />
        <mxCell id="hDFWLcdGjSgrP2EScpw6-1" value="Admin" style="shape=umlActor;verticalLabelPosition=bottom;verticalAlign=top;html=1;outlineConnect=0;" parent="1" vertex="1">
          <mxGeometry x="125" width="30" height="60" as="geometry" />
        </mxCell>
        <mxCell id="hDFWLcdGjSgrP2EScpw6-4" value="System" style="rounded=1;whiteSpace=wrap;html=1;fillColor=#dae8fc;strokeColor=#6c8ebf;" parent="1" vertex="1">
          <mxGeometry x="280" y="30" width="78.75" height="40" as="geometry" />
        </mxCell>
        <mxCell id="hDFWLcdGjSgrP2EScpw6-5" value="" style="html=1;points=[[0,0,0,0,5],[0,1,0,0,-5],[1,0,0,0,5],[1,1,0,0,-5]];perimeter=orthogonalPerimeter;outlineConnect=0;targetShapes=umlLifeline;portConstraint=eastwest;newEdgeStyle={&quot;curved&quot;:0,&quot;rounded&quot;:0};fillColor=#dae8fc;strokeColor=#6c8ebf;" parent="1" vertex="1">
          <mxGeometry x="309.37" y="80" width="20" height="1010" as="geometry" />
        </mxCell>
        <mxCell id="_EOBsJUo3Wk-unAV2DfD-1" value="" style="endArrow=block;html=1;rounded=0;endFill=0;" parent="1" target="hDFWLcdGjSgrP2EScpw6-5" edge="1">
          <mxGeometry width="50" height="50" relative="1" as="geometry">
            <mxPoint x="145" y="122" as="sourcePoint" />
            <mxPoint x="304" y="122" as="targetPoint" />
            <Array as="points">
              <mxPoint x="235" y="122" />
              <mxPoint x="275" y="122" />
            </Array>
          </mxGeometry>
        </mxCell>
        <mxCell id="_EOBsJUo3Wk-unAV2DfD-2" value="Log in" style="text;html=1;align=center;verticalAlign=middle;resizable=0;points=[];autosize=1;strokeColor=none;fillColor=none;" parent="1" vertex="1">
          <mxGeometry x="185" y="90" width="60" height="30" as="geometry" />
        </mxCell>
        <mxCell id="_EOBsJUo3Wk-unAV2DfD-3" value="" style="endArrow=block;html=1;rounded=0;endFill=0;" parent="1" source="hDFWLcdGjSgrP2EScpw6-2" edge="1">
          <mxGeometry width="50" height="50" relative="1" as="geometry">
            <mxPoint x="304" y="162" as="sourcePoint" />
            <mxPoint x="145.38" y="162" as="targetPoint" />
            <Array as="points" />
          </mxGeometry>
        </mxCell>
        <mxCell id="_EOBsJUo3Wk-unAV2DfD-4" value="Display Dashboard" style="text;html=1;align=center;verticalAlign=middle;resizable=0;points=[];autosize=1;strokeColor=none;fillColor=none;" parent="1" vertex="1">
          <mxGeometry x="170" y="130" width="120" height="30" as="geometry" />
        </mxCell>
        <mxCell id="_EOBsJUo3Wk-unAV2DfD-6" value="" style="endArrow=block;html=1;rounded=0;endFill=0;dashed=1;" parent="1" edge="1">
          <mxGeometry width="50" height="50" relative="1" as="geometry">
            <mxPoint x="150" y="200" as="sourcePoint" />
            <mxPoint x="309" y="200" as="targetPoint" />
            <Array as="points">
              <mxPoint x="240" y="200" />
              <mxPoint x="280" y="200" />
            </Array>
          </mxGeometry>
        </mxCell>
        <mxCell id="_EOBsJUo3Wk-unAV2DfD-7" value="Add Parking Lot" style="text;html=1;align=center;verticalAlign=middle;resizable=0;points=[];autosize=1;strokeColor=none;fillColor=none;" parent="1" vertex="1">
          <mxGeometry x="170" y="170" width="110" height="30" as="geometry" />
        </mxCell>
        <mxCell id="_EOBsJUo3Wk-unAV2DfD-8" value="" style="endArrow=block;html=1;rounded=0;endFill=0;dashed=1;" parent="1" source="hDFWLcdGjSgrP2EScpw6-5" target="_EOBsJUo3Wk-unAV2DfD-20" edge="1">
          <mxGeometry width="50" height="50" relative="1" as="geometry">
            <mxPoint x="340" y="240" as="sourcePoint" />
            <mxPoint x="505" y="240" as="targetPoint" />
            <Array as="points">
              <mxPoint x="420" y="240" />
              <mxPoint x="460" y="240" />
            </Array>
          </mxGeometry>
        </mxCell>
        <mxCell id="_EOBsJUo3Wk-unAV2DfD-9" value="Update Parking lots" style="text;html=1;align=center;verticalAlign=middle;resizable=0;points=[];autosize=1;strokeColor=none;fillColor=none;" parent="1" vertex="1">
          <mxGeometry x="350" y="208" width="130" height="30" as="geometry" />
        </mxCell>
        <mxCell id="_EOBsJUo3Wk-unAV2DfD-10" value="" style="endArrow=block;html=1;rounded=0;endFill=0;" parent="1" edge="1">
          <mxGeometry width="50" height="50" relative="1" as="geometry">
            <mxPoint x="498.38" y="280" as="sourcePoint" />
            <mxPoint x="329.38" y="280" as="targetPoint" />
            <Array as="points">
              <mxPoint x="459.38" y="280" />
              <mxPoint x="419.38" y="280" />
            </Array>
          </mxGeometry>
        </mxCell>
        <mxCell id="_EOBsJUo3Wk-unAV2DfD-11" value="Confirm Update" style="text;html=1;align=center;verticalAlign=middle;resizable=0;points=[];autosize=1;strokeColor=none;fillColor=none;" parent="1" vertex="1">
          <mxGeometry x="360" y="250" width="110" height="30" as="geometry" />
        </mxCell>
        <mxCell id="_EOBsJUo3Wk-unAV2DfD-12" value="" style="endArrow=block;html=1;rounded=0;endFill=0;dashed=1;" parent="1" edge="1">
          <mxGeometry width="50" height="50" relative="1" as="geometry">
            <mxPoint x="150.18" y="360" as="sourcePoint" />
            <mxPoint x="309.18" y="360" as="targetPoint" />
            <Array as="points">
              <mxPoint x="240.18" y="360" />
              <mxPoint x="280.18" y="360" />
            </Array>
          </mxGeometry>
        </mxCell>
        <mxCell id="_EOBsJUo3Wk-unAV2DfD-13" value="Remove Parking Lot" style="text;html=1;align=center;verticalAlign=middle;resizable=0;points=[];autosize=1;strokeColor=none;fillColor=none;" parent="1" vertex="1">
          <mxGeometry x="160.18" y="330" width="130" height="30" as="geometry" />
        </mxCell>
        <mxCell id="_EOBsJUo3Wk-unAV2DfD-14" value="" style="endArrow=block;html=1;rounded=0;endFill=0;dashed=1;" parent="1" edge="1">
          <mxGeometry width="50" height="50" relative="1" as="geometry">
            <mxPoint x="330.99" y="402" as="sourcePoint" />
            <mxPoint x="499.99" y="402" as="targetPoint" />
            <Array as="points">
              <mxPoint x="420.99" y="402" />
              <mxPoint x="460.99" y="402" />
            </Array>
          </mxGeometry>
        </mxCell>
        <mxCell id="_EOBsJUo3Wk-unAV2DfD-15" value="Update Parking lots" style="text;html=1;align=center;verticalAlign=middle;resizable=0;points=[];autosize=1;strokeColor=none;fillColor=none;" parent="1" vertex="1">
          <mxGeometry x="350.99" y="370" width="130" height="30" as="geometry" />
        </mxCell>
        <mxCell id="_EOBsJUo3Wk-unAV2DfD-16" value="" style="endArrow=block;html=1;rounded=0;endFill=0;" parent="1" edge="1">
          <mxGeometry width="50" height="50" relative="1" as="geometry">
            <mxPoint x="499.37" y="442" as="sourcePoint" />
            <mxPoint x="330.37" y="442" as="targetPoint" />
            <Array as="points">
              <mxPoint x="460.37" y="442" />
              <mxPoint x="420.37" y="442" />
            </Array>
          </mxGeometry>
        </mxCell>
        <mxCell id="_EOBsJUo3Wk-unAV2DfD-17" value="Confirm Update" style="text;html=1;align=center;verticalAlign=middle;resizable=0;points=[];autosize=1;strokeColor=none;fillColor=none;" parent="1" vertex="1">
          <mxGeometry x="360.99" y="412" width="110" height="30" as="geometry" />
        </mxCell>
        <mxCell id="_EOBsJUo3Wk-unAV2DfD-18" value="" style="endArrow=block;html=1;rounded=0;endFill=0;" parent="1" source="hDFWLcdGjSgrP2EScpw6-5" target="hDFWLcdGjSgrP2EScpw6-2" edge="1">
          <mxGeometry width="50" height="50" relative="1" as="geometry">
            <mxPoint x="309" y="162" as="sourcePoint" />
            <mxPoint x="145.38" y="162" as="targetPoint" />
            <Array as="points">
              <mxPoint x="275.38" y="162" />
              <mxPoint x="235.38" y="162" />
            </Array>
          </mxGeometry>
        </mxCell>
        <mxCell id="hDFWLcdGjSgrP2EScpw6-2" value="" style="html=1;points=[[0,0,0,0,5],[0,1,0,0,-5],[1,0,0,0,5],[1,1,0,0,-5]];perimeter=orthogonalPerimeter;outlineConnect=0;targetShapes=umlLifeline;portConstraint=eastwest;newEdgeStyle={&quot;curved&quot;:0,&quot;rounded&quot;:0};fillColor=#dae8fc;strokeColor=#6c8ebf;" parent="1" vertex="1">
          <mxGeometry x="130" y="90" width="20" height="1000" as="geometry" />
        </mxCell>
        <mxCell id="_EOBsJUo3Wk-unAV2DfD-19" value="Database" style="rounded=1;whiteSpace=wrap;html=1;fillColor=#dae8fc;strokeColor=#6c8ebf;" parent="1" vertex="1">
          <mxGeometry x="470.81" y="30" width="78.75" height="40" as="geometry" />
        </mxCell>
        <mxCell id="_EOBsJUo3Wk-unAV2DfD-20" value="" style="html=1;points=[[0,0,0,0,5],[0,1,0,0,-5],[1,0,0,0,5],[1,1,0,0,-5]];perimeter=orthogonalPerimeter;outlineConnect=0;targetShapes=umlLifeline;portConstraint=eastwest;newEdgeStyle={&quot;curved&quot;:0,&quot;rounded&quot;:0};fillColor=#dae8fc;strokeColor=#6c8ebf;" parent="1" vertex="1">
          <mxGeometry x="500.18" y="80" width="20" height="1000" as="geometry" />
        </mxCell>
        <mxCell id="_EOBsJUo3Wk-unAV2DfD-47" value="" style="endArrow=block;html=1;rounded=0;endFill=0;dashed=1;" parent="1" edge="1">
          <mxGeometry width="50" height="50" relative="1" as="geometry">
            <mxPoint x="150.18" y="518" as="sourcePoint" />
            <mxPoint x="309.18" y="518" as="targetPoint" />
            <Array as="points">
              <mxPoint x="240.18" y="518" />
              <mxPoint x="280.18" y="518" />
            </Array>
          </mxGeometry>
        </mxCell>
        <mxCell id="_EOBsJUo3Wk-unAV2DfD-48" value="Add Parking Manager" style="text;html=1;align=center;verticalAlign=middle;resizable=0;points=[];autosize=1;strokeColor=none;fillColor=none;" parent="1" vertex="1">
          <mxGeometry x="155.18" y="488" width="140" height="30" as="geometry" />
        </mxCell>
        <mxCell id="_EOBsJUo3Wk-unAV2DfD-49" value="" style="endArrow=block;html=1;rounded=0;endFill=0;dashed=1;" parent="1" edge="1">
          <mxGeometry width="50" height="50" relative="1" as="geometry">
            <mxPoint x="329.18" y="558" as="sourcePoint" />
            <mxPoint x="500.18" y="558" as="targetPoint" />
            <Array as="points">
              <mxPoint x="420.18" y="558" />
              <mxPoint x="460.18" y="558" />
            </Array>
          </mxGeometry>
        </mxCell>
        <mxCell id="_EOBsJUo3Wk-unAV2DfD-50" value="Update Managers" style="text;html=1;align=center;verticalAlign=middle;resizable=0;points=[];autosize=1;strokeColor=none;fillColor=none;" parent="1" vertex="1">
          <mxGeometry x="355.18" y="526" width="120" height="30" as="geometry" />
        </mxCell>
        <mxCell id="_EOBsJUo3Wk-unAV2DfD-51" value="" style="endArrow=block;html=1;rounded=0;endFill=0;" parent="1" edge="1">
          <mxGeometry width="50" height="50" relative="1" as="geometry">
            <mxPoint x="498.56" y="598" as="sourcePoint" />
            <mxPoint x="329.56" y="598" as="targetPoint" />
            <Array as="points">
              <mxPoint x="459.56" y="598" />
              <mxPoint x="419.56" y="598" />
            </Array>
          </mxGeometry>
        </mxCell>
        <mxCell id="_EOBsJUo3Wk-unAV2DfD-52" value="Confirm Update" style="text;html=1;align=center;verticalAlign=middle;resizable=0;points=[];autosize=1;strokeColor=none;fillColor=none;" parent="1" vertex="1">
          <mxGeometry x="360.18" y="568" width="110" height="30" as="geometry" />
        </mxCell>
        <mxCell id="_EOBsJUo3Wk-unAV2DfD-53" value="" style="endArrow=block;html=1;rounded=0;endFill=0;dashed=1;" parent="1" edge="1">
          <mxGeometry width="50" height="50" relative="1" as="geometry">
            <mxPoint x="150.18" y="638" as="sourcePoint" />
            <mxPoint x="309.18" y="638" as="targetPoint" />
            <Array as="points">
              <mxPoint x="240.18" y="638" />
              <mxPoint x="280.18" y="638" />
            </Array>
          </mxGeometry>
        </mxCell>
        <mxCell id="_EOBsJUo3Wk-unAV2DfD-54" value="Remove Parking&amp;nbsp; Manager" style="text;html=1;align=center;verticalAlign=middle;resizable=0;points=[];autosize=1;strokeColor=none;fillColor=none;" parent="1" vertex="1">
          <mxGeometry x="140.18" y="608" width="170" height="30" as="geometry" />
        </mxCell>
        <mxCell id="_EOBsJUo3Wk-unAV2DfD-55" value="" style="endArrow=block;html=1;rounded=0;endFill=0;dashed=1;" parent="1" edge="1">
          <mxGeometry width="50" height="50" relative="1" as="geometry">
            <mxPoint x="330.99" y="680" as="sourcePoint" />
            <mxPoint x="499.98999999999995" y="680" as="targetPoint" />
            <Array as="points">
              <mxPoint x="420.99" y="680" />
              <mxPoint x="460.98999999999995" y="680" />
            </Array>
          </mxGeometry>
        </mxCell>
        <mxCell id="_EOBsJUo3Wk-unAV2DfD-56" value="Update Parking Managers" style="text;html=1;align=center;verticalAlign=middle;resizable=0;points=[];autosize=1;strokeColor=none;fillColor=none;" parent="1" vertex="1">
          <mxGeometry x="335.99" y="648" width="160" height="30" as="geometry" />
        </mxCell>
        <mxCell id="_EOBsJUo3Wk-unAV2DfD-57" value="" style="endArrow=block;html=1;rounded=0;endFill=0;" parent="1" edge="1">
          <mxGeometry width="50" height="50" relative="1" as="geometry">
            <mxPoint x="499.37000000000006" y="720" as="sourcePoint" />
            <mxPoint x="330.37" y="720" as="targetPoint" />
            <Array as="points">
              <mxPoint x="460.37000000000006" y="720" />
              <mxPoint x="420.37" y="720" />
            </Array>
          </mxGeometry>
        </mxCell>
        <mxCell id="_EOBsJUo3Wk-unAV2DfD-58" value="Confirm Update" style="text;html=1;align=center;verticalAlign=middle;resizable=0;points=[];autosize=1;strokeColor=none;fillColor=none;" parent="1" vertex="1">
          <mxGeometry x="360.99" y="690" width="110" height="30" as="geometry" />
        </mxCell>
        <mxCell id="_EOBsJUo3Wk-unAV2DfD-59" value="" style="endArrow=block;html=1;rounded=0;endFill=0;" parent="1" edge="1">
          <mxGeometry width="50" height="50" relative="1" as="geometry">
            <mxPoint x="309.18" y="480" as="sourcePoint" />
            <mxPoint x="150.18" y="480" as="targetPoint" />
            <Array as="points">
              <mxPoint x="275.56" y="480" />
              <mxPoint x="235.56" y="480" />
            </Array>
          </mxGeometry>
        </mxCell>
        <mxCell id="_EOBsJUo3Wk-unAV2DfD-60" value="Confirm action" style="text;html=1;align=center;verticalAlign=middle;resizable=0;points=[];autosize=1;strokeColor=none;fillColor=none;" parent="1" vertex="1">
          <mxGeometry x="170.18" y="442" width="100" height="30" as="geometry" />
        </mxCell>
        <mxCell id="_EOBsJUo3Wk-unAV2DfD-62" value="" style="endArrow=block;html=1;rounded=0;endFill=0;" parent="1" edge="1">
          <mxGeometry width="50" height="50" relative="1" as="geometry">
            <mxPoint x="309.5" y="318" as="sourcePoint" />
            <mxPoint x="150.5" y="318" as="targetPoint" />
            <Array as="points">
              <mxPoint x="275.88" y="318" />
              <mxPoint x="235.88" y="318" />
            </Array>
          </mxGeometry>
        </mxCell>
        <mxCell id="_EOBsJUo3Wk-unAV2DfD-63" value="Confirm action" style="text;html=1;align=center;verticalAlign=middle;resizable=0;points=[];autosize=1;strokeColor=none;fillColor=none;" parent="1" vertex="1">
          <mxGeometry x="170.5" y="280" width="100" height="30" as="geometry" />
        </mxCell>
        <mxCell id="_EOBsJUo3Wk-unAV2DfD-65" value="" style="endArrow=block;html=1;rounded=0;endFill=0;" parent="1" edge="1">
          <mxGeometry width="50" height="50" relative="1" as="geometry">
            <mxPoint x="309" y="758" as="sourcePoint" />
            <mxPoint x="150" y="758" as="targetPoint" />
            <Array as="points">
              <mxPoint x="275.38" y="758" />
              <mxPoint x="235.38" y="758" />
            </Array>
          </mxGeometry>
        </mxCell>
        <mxCell id="_EOBsJUo3Wk-unAV2DfD-66" value="Confirm action" style="text;html=1;align=center;verticalAlign=middle;resizable=0;points=[];autosize=1;strokeColor=none;fillColor=none;" parent="1" vertex="1">
          <mxGeometry x="170" y="720" width="100" height="30" as="geometry" />
        </mxCell>
        <mxCell id="_EOBsJUo3Wk-unAV2DfD-84" value="" style="endArrow=block;html=1;rounded=0;endFill=0;dashed=1;" parent="1" edge="1">
          <mxGeometry width="50" height="50" relative="1" as="geometry">
            <mxPoint x="150.37" y="800" as="sourcePoint" />
            <mxPoint x="309.37" y="800" as="targetPoint" />
            <Array as="points">
              <mxPoint x="240.37" y="800" />
              <mxPoint x="280.37" y="800" />
            </Array>
          </mxGeometry>
        </mxCell>
        <mxCell id="_EOBsJUo3Wk-unAV2DfD-85" value="Ban User" style="text;html=1;align=center;verticalAlign=middle;resizable=0;points=[];autosize=1;strokeColor=none;fillColor=none;" parent="1" vertex="1">
          <mxGeometry x="190.37" y="770" width="70" height="30" as="geometry" />
        </mxCell>
        <mxCell id="_EOBsJUo3Wk-unAV2DfD-86" value="" style="endArrow=block;html=1;rounded=0;endFill=0;dashed=1;" parent="1" edge="1">
          <mxGeometry width="50" height="50" relative="1" as="geometry">
            <mxPoint x="331.17999999999995" y="842" as="sourcePoint" />
            <mxPoint x="500.17999999999995" y="842" as="targetPoint" />
            <Array as="points">
              <mxPoint x="421.17999999999995" y="842" />
              <mxPoint x="461.17999999999995" y="842" />
            </Array>
          </mxGeometry>
        </mxCell>
        <mxCell id="_EOBsJUo3Wk-unAV2DfD-87" value="Update User status" style="text;html=1;align=center;verticalAlign=middle;resizable=0;points=[];autosize=1;strokeColor=none;fillColor=none;" parent="1" vertex="1">
          <mxGeometry x="351.17999999999995" y="810" width="130" height="30" as="geometry" />
        </mxCell>
        <mxCell id="_EOBsJUo3Wk-unAV2DfD-88" value="" style="endArrow=block;html=1;rounded=0;endFill=0;" parent="1" edge="1">
          <mxGeometry width="50" height="50" relative="1" as="geometry">
            <mxPoint x="499.56000000000006" y="882" as="sourcePoint" />
            <mxPoint x="330.56000000000006" y="882" as="targetPoint" />
            <Array as="points">
              <mxPoint x="460.56000000000006" y="882" />
              <mxPoint x="420.56000000000006" y="882" />
            </Array>
          </mxGeometry>
        </mxCell>
        <mxCell id="_EOBsJUo3Wk-unAV2DfD-89" value="Confirm Update" style="text;html=1;align=center;verticalAlign=middle;resizable=0;points=[];autosize=1;strokeColor=none;fillColor=none;" parent="1" vertex="1">
          <mxGeometry x="361.17999999999995" y="852" width="110" height="30" as="geometry" />
        </mxCell>
        <mxCell id="_EOBsJUo3Wk-unAV2DfD-90" value="" style="endArrow=block;html=1;rounded=0;endFill=0;" parent="1" edge="1">
          <mxGeometry width="50" height="50" relative="1" as="geometry">
            <mxPoint x="309.18999999999994" y="920" as="sourcePoint" />
            <mxPoint x="150.19" y="920" as="targetPoint" />
            <Array as="points">
              <mxPoint x="275.57" y="920" />
              <mxPoint x="235.57" y="920" />
            </Array>
          </mxGeometry>
        </mxCell>
        <mxCell id="_EOBsJUo3Wk-unAV2DfD-91" value="Confirm action" style="text;html=1;align=center;verticalAlign=middle;resizable=0;points=[];autosize=1;strokeColor=none;fillColor=none;" parent="1" vertex="1">
          <mxGeometry x="170.19" y="882" width="100" height="30" as="geometry" />
        </mxCell>
        <mxCell id="_EOBsJUo3Wk-unAV2DfD-92" value="" style="endArrow=block;html=1;rounded=0;endFill=0;dashed=1;" parent="1" edge="1">
          <mxGeometry width="50" height="50" relative="1" as="geometry">
            <mxPoint x="153" y="958.9000000000001" as="sourcePoint" />
            <mxPoint x="312" y="958.9000000000001" as="targetPoint" />
            <Array as="points">
              <mxPoint x="243" y="958.9000000000001" />
              <mxPoint x="283" y="958.9000000000001" />
            </Array>
          </mxGeometry>
        </mxCell>
        <mxCell id="_EOBsJUo3Wk-unAV2DfD-93" value="View all Parking lot statistics" style="text;html=1;align=center;verticalAlign=middle;resizable=0;points=[];autosize=1;strokeColor=none;fillColor=none;" parent="1" vertex="1">
          <mxGeometry x="143" y="928.9000000000001" width="170" height="30" as="geometry" />
        </mxCell>
        <mxCell id="_EOBsJUo3Wk-unAV2DfD-94" value="" style="endArrow=block;html=1;rounded=0;endFill=0;dashed=1;" parent="1" edge="1">
          <mxGeometry width="50" height="50" relative="1" as="geometry">
            <mxPoint x="329.1800000000001" y="999.8499999999997" as="sourcePoint" />
            <mxPoint x="500.18" y="999.8499999999999" as="targetPoint" />
            <Array as="points">
              <mxPoint x="424.8" y="999.8499999999999" />
              <mxPoint x="464.8" y="999.8499999999999" />
            </Array>
          </mxGeometry>
        </mxCell>
        <mxCell id="_EOBsJUo3Wk-unAV2DfD-95" value="Retrieve all lot Statistics" style="text;html=1;align=center;verticalAlign=middle;resizable=0;points=[];autosize=1;strokeColor=none;fillColor=none;" parent="1" vertex="1">
          <mxGeometry x="337.81" y="958.9" width="150" height="30" as="geometry" />
        </mxCell>
        <mxCell id="_EOBsJUo3Wk-unAV2DfD-96" value="" style="endArrow=block;html=1;rounded=0;endFill=0;" parent="1" edge="1">
          <mxGeometry width="50" height="50" relative="1" as="geometry">
            <mxPoint x="502.81" y="1039.85" as="sourcePoint" />
            <mxPoint x="327.19" y="1039.85" as="targetPoint" />
            <Array as="points">
              <mxPoint x="462.19" y="1039.85" />
              <mxPoint x="422.19" y="1039.85" />
            </Array>
          </mxGeometry>
        </mxCell>
        <mxCell id="_EOBsJUo3Wk-unAV2DfD-97" value="Send all Statistics" style="text;html=1;align=center;verticalAlign=middle;resizable=0;points=[];autosize=1;strokeColor=none;fillColor=none;" parent="1" vertex="1">
          <mxGeometry x="352.81" y="1007.8499999999999" width="120" height="30" as="geometry" />
        </mxCell>
        <mxCell id="_EOBsJUo3Wk-unAV2DfD-98" value="" style="endArrow=block;html=1;rounded=0;endFill=0;" parent="1" edge="1">
          <mxGeometry width="50" height="50" relative="1" as="geometry">
            <mxPoint x="310" y="1079.0499999999997" as="sourcePoint" />
            <mxPoint x="151" y="1079.0499999999997" as="targetPoint" />
            <Array as="points">
              <mxPoint x="281" y="1079.0499999999997" />
              <mxPoint x="241" y="1079.0499999999997" />
            </Array>
          </mxGeometry>
        </mxCell>
        <mxCell id="_EOBsJUo3Wk-unAV2DfD-99" value="Display all Parking lot&amp;nbsp;&lt;div&gt;statistics&lt;/div&gt;" style="text;html=1;align=center;verticalAlign=middle;resizable=0;points=[];autosize=1;strokeColor=none;fillColor=none;" parent="1" vertex="1">
          <mxGeometry x="160" y="1044.05" width="140" height="40" as="geometry" />
        </mxCell>
        <mxCell id="_EOBsJUo3Wk-unAV2DfD-100" value="" style="endArrow=none;dashed=1;html=1;dashPattern=1 3;strokeWidth=2;rounded=0;" parent="1" target="_EOBsJUo3Wk-unAV2DfD-20" edge="1">
          <mxGeometry width="50" height="50" relative="1" as="geometry">
            <mxPoint x="510" y="1090" as="sourcePoint" />
            <mxPoint x="370" y="1010" as="targetPoint" />
          </mxGeometry>
        </mxCell>
      </root>
    </mxGraphModel>
  </diagram>
</mxfile>
